{"title":"Avengers: Age of Ultron (2015) CAMRip [RUS]","uid":11841880,"size":835278964,"categoryP":"video","categoryS":"movies","magnet":"?xt=urn:btih:f1468851074b43add79c453eaaab47fe595c9e14&amp;dn=Avengers%3A+Age+of+Ultron+%282015%29+CAMRip+%5BRUS%5D&amp;tr=udp%3A%2F%2Ftracker.openbittorrent.com%3A80&amp;tr=udp%3A%2F%2Fopen.demonii.com%3A1337&amp;tr=udp%3A%2F%2Ftracker.coppersurfer.tk%3A6969&amp;tr=udp%3A%2F%2Fexodus.desync.com%3A6969","seeders":337,"leechers":11,"uploader":"nbdjod","files":1,"time":1429870558,"description":"Avengers: Age of Ultron (2015) CAMRip [RUS]\n\nAudio - Russian\n\nStoryline\n\nWhen Tony Stark tries to jumpstart a dormant peacekeeping program, things go awry and Earth's Mightiest Heroes, including Iron Man, Captain America, Thor, The Incredible Hulk, Black Widow and Hawkeye, are put to the ultimate test as the fate of the planet hangs in the balance. As the villainous Ultron emerges, it is up to The Avengers to stop him from enacting his terrible plans, and soon uneasy alliances and unexpected action pave the way for a global adventure.\n\n\nReview by Loveforme1432 Hulled\n\nI just want to get to the point, this movie is outstanding. This will most likely be the biggest movie of 2015. This is a great movie for those enjoy who action, suspense, and awe worthy moments. This was unbelievably better then the first and I had my doubts but of course Marvel blew me away. I can not even think of one bad thing to say honestly, Marvel knows what to do and how do to do it. If you are a Marvel fan you need to see this movie. I will admit I was a bit upset when I found out Loki/ Tom Hiddleston would not be in this one but Ultorn delivered an amazing performance as well. Get your tickets and get your friends, family, or both because you are in for a huge surprise.\n\n\n\nMI:\nGeneral\nFormat : AVI\nFormat/Info : Audio Video Interleave\nFile size : 797 MiB\nDuration : 2h 12mn\nOverall bit rate : 839 Kbps\nWriting application : VirtualDubMod 1.5.10.2 (build 2540/release)\nWriting library : VirtualDub build 35491/release\n\nVideo\nID : 0\nFormat : MPEG-4 Visual\nFormat profile : Advanced Simple@L5\nFormat settings, BVOP : 2\nFormat settings, QPel : No\nFormat settings, GMC : No warppoints\nFormat settings, Matrix : Default (H.263)\nMuxing mode : Packed bitstream\nCodec ID : XVID\nCodec ID/Hint : XviD\nDuration : 2h 12mn\nBit rate : 700 Kbps\nWidth : 640 pixels\nHeight : 272 pixels\nDisplay aspect ratio : 2.35:1\nFrame rate : 29.970 fps\nColor space : YUV\nChroma subsampling : 4:2:0\nBit depth : 8 bits\nScan type : Progressive\nCompression mode : Lossy\nBits/(Pixel*Frame) : 0.134\nStream size : 664 MiB (83%)\nWriting library : XviD 73\n\nAudio\nID : 1\nFormat : MPEG Audio\nFormat version : Version 1\nFormat profile : Layer 3\nCodec ID : 55\nCodec ID/Hint : MP3\nDuration : 2h 12mn\nBit rate mode : Constant\nBit rate : 128 Kbps\nChannel(s) : 2 channels\nSampling rate : 48.0 KHz\nCompression mode : Lossy\nStream size : 121 MiB (15%)\nAlignment : Aligned on interleaves\nInterleave, duration : 33 ms (1.00 video frame)\nInterleave, preload duration : 504 ms\nWriting library : LAME3.99r\nEncoding settings : -m s -V 4 -q 2 -lowpass 17.5 -b 128\n\nsample: &lt;a href=&quot;\nhttp://rusfolder.com/43525389&quot; rel=&quot;nofollow&quot; target=&quot;_NEW&quot;&gt;\nhttp://rusfolder.com/43525389&lt;/a&gt;\n\nscreens: &lt;a href=&quot;\nhttp://i1.imageban.ru/out/2015/04/24/7e688cc01257c5f526b726b8e6630a1d.jpg&quot; rel=&quot;nofollow&quot; target=&quot;_NEW&quot;&gt;\nhttp://i1.imageban.ru/out/2015/04/24/7e688cc01257c5f526b726b8e6630a1d.jpg&lt;/a&gt; &lt;a href=&quot;\nhttp://i1.imageban.ru/out/2015/04/24/083ef65e4ece8059e0911e31df0ef352.jpg&quot; rel=&quot;nofollow&quot; target=&quot;_NEW&quot;&gt;\nhttp://i1.imageban.ru/out/2015/04/24/083ef65e4ece8059e0911e31df0ef352.jpg&lt;/a&gt; &lt;a href=&quot;\nhttp://i1.imageban.ru/out/2015/04/24/edcc1366dc5078cc05f4ce24580235a5.jpg&quot; rel=&quot;nofollow&quot; target=&quot;_NEW&quot;&gt;\nhttp://i1.imageban.ru/out/2015/04/24/edcc1366dc5078cc05f4ce24580235a5.jpg&lt;/a&gt; &lt;a href=&quot;\nhttp://i2.imageban.ru/out/2015/04/24/2cf3fd6d515377c8be2f226111b815c8.jpg&quot; rel=&quot;nofollow&quot; target=&quot;_NEW&quot;&gt;\nhttp://i2.imageban.ru/out/2015/04/24/2cf3fd6d515377c8be2f226111b815c8.jpg&lt;/a&gt; &lt;a href=&quot;\nhttp://i2.imageban.ru/out/2015/04/24/14c0539e0530cf4d42bad2cee3b2f227.jpg&quot; rel=&quot;nofollow&quot; target=&quot;_NEW&quot;&gt;\nhttp://i2.imageban.ru/out/2015/04/24/14c0539e0530cf4d42bad2cee3b2f227.jpg&lt;/a&gt; &lt;a href=&quot;\nhttp://i6.imageban.ru/out/2015/04/24/925ed69e3bcc4a90201bdfafe69cd4e9.jpg&quot; rel=&quot;nofollow&quot; target=&quot;_NEW&quot;&gt;\nhttp://i6.imageban.ru/out/2015/04/24/925ed69e3bcc4a90201bdfafe69cd4e9.jpg&lt;/a&gt; &lt;a href=&quot;\nhttp://i5.imageban.ru/out/2015/04/24/c92019cf0210483e0ee2501277e23556.jpg&quot; rel=&quot;nofollow&quot; target=&quot;_NEW&quot;&gt;\nhttp://i5.imageban.ru/out/2015/04/24/c92019cf0210483e0ee2501277e23556.jpg&lt;/a&gt; &lt;a href=&quot;\nhttp://i1.imageban.ru/out/2015/04/24/c0150d07963dd0ae833fd0e6de761f92.jpg&quot; rel=&quot;nofollow&quot; target=&quot;_NEW&quot;&gt;\nhttp://i1.imageban.ru/out/2015/04/24/c0150d07963dd0ae833fd0e6de761f92.jpg&lt;/a&gt;","torrent":{"xt":"urn:btih:f1468851074b43add79c453eaaab47fe595c9e14","amp;dn":"Avengers%3A+Age+of+Ultron+%282015%29+CAMRip+%5BRUS%5D","amp;tr":["udp%3A%2F%2Ftracker.openbittorrent.com%3A80","udp%3A%2F%2Fopen.demonii.com%3A1337","udp%3A%2F%2Ftracker.coppersurfer.tk%3A6969","udp%3A%2F%2Fexodus.desync.com%3A6969"],"infoHash":"f1468851074b43add79c453eaaab47fe595c9e14","infoHashBuffer":{"type":"Buffer","data":[241,70,136,81,7,75,67,173,215,156,69,62,170,171,71,254,89,92,158,20]},"announce":[],"urlList":[]}}